<?xml version="1.0" standalone="no"?><!DOCTYPE svg PUBLIC "-//W3C//DTD SVG 1.1//EN" "http://www.w3.org/Graphics/SVG/1.1/DTD/svg11.dtd"><svg t="1585745442260" class="icon" viewBox="0 0 1024 1024" version="1.1" xmlns="http://www.w3.org/2000/svg" p-id="3956"  xmlns:xlink="http://www.w3.org/1999/xlink" width="128" height="128"><defs><style type="text/css">
* {  }
</style></defs><path d="M266.605714 877.129143a68.973714 68.973714 0 0 0 3.291429 97.572571 78.994286 78.994286 0 0 0 107.958857 0L809.545143 571.245714a68.973714 68.973714 0 0 0 19.602286-68.169143 68.900571 68.900571 0 0 0-19.602286-68.169142L377.856 31.670857a78.994286 78.994286 0 0 0-107.958857 0 68.973714 68.973714 0 0 0 0 100.790857L666.624 503.222857 269.897143 873.837714a69.046857 69.046857 0 0 0-1.682286 1.609143z" p-id="3957" fill="#ffffff" data-darkreader-inline-fill="" style="--darkreader-inline-fill:#181a1b;"></path></svg>