<?xml version="1.0" standalone="no"?><!DOCTYPE svg PUBLIC "-//W3C//DTD SVG 1.1//EN" "http://www.w3.org/Graphics/SVG/1.1/DTD/svg11.dtd"><svg t="1585747081028" class="icon" viewBox="0 0 1024 1024" version="1.1" xmlns="http://www.w3.org/2000/svg" p-id="6887" xmlns:xlink="http://www.w3.org/1999/xlink" width="128" height="128"><defs><style type="text/css">
</style></defs><path d="M515.303226 391.432258m-148.645161 0a9 9 0 1 0 297.290323 0 9 9 0 1 0-297.290323 0Z" p-id="6888" fill="#ffffff" data-darkreader-inline-fill="" style="--darkreader-inline-fill:#181a1b;"></path><path d="M508.696774 75.974194c-236.180645 0-429.419355 193.23871-429.419355 429.419355 0 140.387097 67.716129 264.258065 171.767742 343.535484 0 0 0 0 0 0 1.651613 0 1.651613 1.651613 3.303226 1.651613 4.954839 3.303226 11.56129 8.258065 16.516129 11.56129C313.806452 891.870968 363.354839 913.341935 416.206452 924.903226c3.303226 1.651613 8.258065 1.651613 11.56129 1.651613 4.954839 1.651613 9.909677 1.651613 14.864516 3.303226 8.258065 1.651613 18.167742 1.651613 26.425806 3.303226 3.303226 0 4.954839 0 8.258065 0 9.909677 0 21.470968 1.651613 31.380645 1.651613 6.606452 0 14.864516 0 21.470968 0 3.303226 0 6.606452 0 9.909677 0 3.303226 0 6.606452 0 9.909677 0 4.954839 0 9.909677-1.651613 14.864516-1.651613 1.651613 0 3.303226 0 4.954839 0 6.606452-1.651613 11.56129-1.651613 16.516129-3.303226 0 0 1.651613 0 1.651613 0 199.845161-37.987097 350.141935-213.058065 350.141935-421.16129C938.116129 269.212903 744.877419 75.974194 508.696774 75.974194zM791.122581 804.335484c-1.651613-148.645161-122.219355-264.258065-270.864516-264.258065-150.296774 0-272.516129 122.219355-272.516129 272.516129 0 3.303226 0 8.258065 0 11.56129-92.490323-75.974194-151.948387-191.587097-151.948387-320.412903 0-227.922581 184.980645-412.903226 412.903226-412.903226s412.903226 184.980645 412.903226 412.903226C921.6 622.658065 872.051613 730.012903 791.122581 804.335484z" p-id="6889" fill="#ffffff" data-darkreader-inline-fill="" style="--darkreader-inline-fill:#181a1b;"></path></svg>