<?xml version="1.0" standalone="no"?><!DOCTYPE svg PUBLIC "-//W3C//DTD SVG 1.1//EN" "http://www.w3.org/Graphics/SVG/1.1/DTD/svg11.dtd"><svg t="1585752956042" class="icon" viewBox="0 0 1024 1024" version="1.1" xmlns="http://www.w3.org/2000/svg" p-id="15577" data-darkreader-inline-fill="" xmlns:xlink="http://www.w3.org/1999/xlink" width="128" height="128"><defs><style type="text/css">[data-darkreader-inline-fill] { fill: var(--darkreader-inline-fill)  !important; }
* {  }
</style></defs><path d="M220.672 859.136c-63.488 0-99.84-36.352-99.84-99.84V584.704c0-10.752 8.704-19.456 19.456-19.456 29.184 0 58.88-4.096 58.88 23.552v165.888c0 13.824 11.264 24.576 24.576 24.576h576.512c13.824 0 25.088-11.264 25.088-25.088V584.192c0-10.752 8.704-19.456 19.456-19.456 29.184 0 58.88-4.096 58.88 23.552v175.104c0 63.488-31.232 94.72-94.72 94.72l-588.288 1.024z" fill="#000000" p-id="15578" data-darkreader-inline-fill="" style="--darkreader-inline-fill:#000000;"></path><path d="M512 647.68c-21.504 0-38.912-17.408-38.912-38.912V170.496c0-21.504 17.408-23.552 38.912-23.552 21.504 0 38.912 2.048 38.912 23.552v438.272c0 21.504-17.408 38.912-38.912 38.912z" fill="#000000" p-id="15579" data-darkreader-inline-fill="" style="--darkreader-inline-fill:#000000;"></path><path d="M509.952 662.016c-10.24 0-20.48-4.096-27.648-11.264l-179.2-179.2c-18.944-18.944-17.92-37.376 0-55.296s37.376-17.92 55.296 0l151.552 151.552 160.256-160.256c13.312-13.312 32.768-9.728 48.128 5.632s22.016 34.816 7.168 49.664L537.6 650.24c-7.168 7.168-17.408 11.264-27.648 11.264v0.512z" fill="#000000" p-id="15580" data-darkreader-inline-fill="" style="--darkreader-inline-fill:#000000;"></path></svg>