<?xml version="1.0" standalone="no"?><!DOCTYPE svg PUBLIC "-//W3C//DTD SVG 1.1//EN" "http://www.w3.org/Graphics/SVG/1.1/DTD/svg11.dtd"><svg t="1585750067069" class="icon" viewBox="0 0 1024 1024" version="1.1" xmlns="http://www.w3.org/2000/svg" p-id="9476" data-darkreader-inline-fill="" data-spm-anchor-id="a313x.7781069.0.i60" xmlns:xlink="http://www.w3.org/1999/xlink" width="128" height="128"><defs><style type="text/css">* {  }
</style></defs><path d="M829.901823 129.231773 192.003917 129.231773c-70.423653 0-127.578302 57.154649-127.578302 127.579301l0 382.736105c0 70.424652 57.154649 127.579501 127.578302 127.579501l127.387831 0 0 65.193199c0 23.92258 13.395918 45.418206 34.831384 56.008426 8.86499 4.272703 18.305789 6.442432 27.682032 6.442432 13.461473 0 26.791835-4.402815 37.956665-12.94942l148.948213-114.694637L829.901823 767.12668c70.424652 0 127.579501-57.154849 127.579501-127.579501L957.481324 256.811074C957.481324 186.386422 900.325475 129.231773 829.901823 129.231773L829.901823 129.231773zM893.689375 639.547179c0 35.276882-28.511869 63.79075-63.788751 63.79075l-271.682199-0.063557c-7.015044 0-13.841615 2.293645-19.391652 6.570545l-155.709029 122.540318 0-97.215488c0-17.605064-14.290311-31.830819-31.832817-31.830819l-159.281007 0c-35.274884 0-63.789751-28.514867-63.789751-63.79075L128.214167 256.811074c0-35.276882 28.513868-63.789751 63.789751-63.789751L829.901823 193.021324c35.276882 0 63.788751 28.513868 63.788751 63.789751l0 382.736105L893.689375 639.547179zM319.583219 384.389376c-35.276882 0-63.789751 28.512868-63.789751 63.789751 0 35.276882 28.512868 63.789751 63.789751 63.789751s63.789751-28.513868 63.789751-63.789751C383.372969 412.903244 354.860101 384.389376 319.583219 384.389376L319.583219 384.389376zM510.951271 384.389376c-35.274684 0-63.788551 28.512868-63.788551 63.789751 0 35.276882 28.512868 63.789751 63.788551 63.789751 35.275883 0 63.789751-28.513868 63.789751-63.789751C574.741022 412.903244 546.227154 384.389376 510.951271 384.389376L510.951271 384.389376zM702.321522 384.389376c-35.276882 0-63.788751 28.512868-63.788751 63.789751 0 35.276882 28.511869 63.789751 63.788751 63.789751S766.111073 483.45501 766.111073 448.179127C766.111073 412.903244 737.598404 384.389376 702.321522 384.389376L702.321522 384.389376z" p-id="9477" data-spm-anchor-id="a313x.7781069.0.i59" class="selected"></path></svg>