<?xml version="1.0" standalone="no"?><!DOCTYPE svg PUBLIC "-//W3C//DTD SVG 1.1//EN" "http://www.w3.org/Graphics/SVG/1.1/DTD/svg11.dtd"><svg t="1585752800651" class="icon" viewBox="0 0 1024 1024" version="1.1" xmlns="http://www.w3.org/2000/svg" p-id="11349" data-darkreader-inline-fill="" xmlns:xlink="http://www.w3.org/1999/xlink" width="128" height="128"><defs><style type="text/css">* {  }
</style></defs><path d="M1018.61333 397.1L788.31333 84.8c-5.2-7.1-13.5-11.2-22.3-11.2l-513 3.7c-8.8 0.1-17 4.3-22.1 11.5L5.11333 404.4c-7.7 10.8-6.6 25.6 2.6 35.1L496.01333 942.1c5.2 5.3 12.3 8.3 19.7 8.3h0.2c7.5-0.1 14.6-3.2 19.8-8.6l480.8-509.5c9.1-9.7 10-24.5 2.1-35.2z m-715.3 46.5l139.4 364.8-353-363.3 213.6-1.5z m292.8-313.8L667.31333 386l-310.9 2.3 68-257.3 171.7-1.2zM662.21333 441L514.71333 842.8 362.01333 443.2l300.2-2.2z m58.6-0.4l213.8-1.5-348.9 369.6 135.1-368.1zM940.71333 384l-216.5 1.6L653.01333 129.3l99.4-0.7L940.71333 384zM267.41333 132.1l100-0.7-68 257.3-216.6 1.6 184.6-258.2z" fill="" p-id="11350"></path></svg>