<?xml version="1.0" standalone="no"?><!DOCTYPE svg PUBLIC "-//W3C//DTD SVG 1.1//EN" "http://www.w3.org/Graphics/SVG/1.1/DTD/svg11.dtd"><svg t="1585752753873" class="icon" viewBox="0 0 1024 1024" version="1.1" xmlns="http://www.w3.org/2000/svg" p-id="10523" data-darkreader-inline-fill="" xmlns:xlink="http://www.w3.org/1999/xlink" width="128" height="128"><defs><style type="text/css">* {  }
</style></defs><path d="M512 478.72c-115.7376 0-209.92-94.1824-209.92-209.92a25.6 25.6 0 0 1 51.2 0c0 87.5264 71.1936 158.72 158.72 158.72s158.72-71.1936 158.72-158.72a25.6 25.6 0 1 1 51.2 0c0 115.7376-94.1824 209.92-209.92 209.92z" fill="" p-id="10524"></path><path d="M716.8 934.4H307.2c-127.0272 0-230.4-103.3472-230.4-230.4v-409.6c0-127.0272 103.3728-230.4 230.4-230.4h409.6c127.0528 0 230.4 103.3728 230.4 230.4v409.6c0 127.0528-103.3472 230.4-230.4 230.4z m-409.6-819.2c-98.816 0-179.2 80.384-179.2 179.2v409.6c0 98.7904 80.384 179.2 179.2 179.2h409.6c98.7904 0 179.2-80.4096 179.2-179.2v-409.6c0-98.816-80.4096-179.2-179.2-179.2H307.2z" fill="" p-id="10525"></path></svg>