<?xml version="1.0" standalone="no"?><!DOCTYPE svg PUBLIC "-//W3C//DTD SVG 1.1//EN" "http://www.w3.org/Graphics/SVG/1.1/DTD/svg11.dtd"><svg t="1585747407846" class="icon" viewBox="0 0 1024 1024" version="1.1" xmlns="http://www.w3.org/2000/svg" p-id="8665" xmlns:xlink="http://www.w3.org/1999/xlink" width="128" height="128"><defs><style type="text/css">
</style></defs><path d="M676.3 64H347.7c-41.1 0-74.7 33.6-74.7 74.7v746.7c0 41.1 33.6 74.7 74.7 74.7h328.5c41.1 0 74.7-33.6 74.7-74.7V138.7c0-41.1-33.6-74.7-74.6-74.7z m-209 59.7h89.6c8.3 0 14.9 6.7 14.9 14.9 0 8.3-6.7 14.9-14.9 14.9h-89.6c-8.3 0-14.9-6.7-14.9-14.9-0.1-8.2 6.6-14.9 14.9-14.9zM512 930.1c-24.7 0-44.8-20.1-44.8-44.8 0-24.7 20.1-44.8 44.8-44.8 24.8 0 44.8 20.1 44.8 44.8 0 24.8-20 44.8-44.8 44.8z m209.1-119.4H303V213.4h418.1v597.3z" p-id="8666" fill="#ffffff" data-darkreader-inline-fill="" style="--darkreader-inline-fill:#181a1b;"></path></svg>